<mxfile host="Electron" agent="Mozilla/5.0 (Windows NT 10.0; Win64; x64) AppleWebKit/537.36 (KHTML, like Gecko) draw.io/24.7.5 Chrome/126.0.6478.183 Electron/31.3.0 Safari/537.36" version="24.7.5">
  <diagram name="PÃ¡gina-1" id="PdOY6D68J-PDZ_r8uyjY">
    <mxGraphModel dx="880" dy="1711" grid="1" gridSize="10" guides="1" tooltips="1" connect="1" arrows="1" fold="1" page="1" pageScale="1" pageWidth="827" pageHeight="1169" math="0" shadow="0">
      <root>
        <mxCell id="0" />
        <mxCell id="1" parent="0" />
        <mxCell id="xtQtsHthPv7l7iFWxC1U-9" value="" style="edgeStyle=orthogonalEdgeStyle;rounded=0;orthogonalLoop=1;jettySize=auto;html=1;endArrow=none;endFill=0;" parent="1" source="xtQtsHthPv7l7iFWxC1U-1" target="xtQtsHthPv7l7iFWxC1U-8" edge="1">
          <mxGeometry relative="1" as="geometry" />
        </mxCell>
        <mxCell id="xtQtsHthPv7l7iFWxC1U-11" value="" style="edgeStyle=orthogonalEdgeStyle;rounded=0;orthogonalLoop=1;jettySize=auto;html=1;endArrow=none;endFill=0;" parent="1" source="xtQtsHthPv7l7iFWxC1U-1" target="xtQtsHthPv7l7iFWxC1U-10" edge="1">
          <mxGeometry relative="1" as="geometry" />
        </mxCell>
        <mxCell id="xtQtsHthPv7l7iFWxC1U-13" value="" style="edgeStyle=orthogonalEdgeStyle;rounded=0;orthogonalLoop=1;jettySize=auto;html=1;endArrow=none;endFill=0;" parent="1" source="xtQtsHthPv7l7iFWxC1U-1" target="xtQtsHthPv7l7iFWxC1U-12" edge="1">
          <mxGeometry relative="1" as="geometry" />
        </mxCell>
        <mxCell id="xtQtsHthPv7l7iFWxC1U-14" value="(1,N)" style="edgeLabel;html=1;align=center;verticalAlign=middle;resizable=0;points=[];" parent="xtQtsHthPv7l7iFWxC1U-13" vertex="1" connectable="0">
          <mxGeometry x="0.14" y="-2" relative="1" as="geometry">
            <mxPoint as="offset" />
          </mxGeometry>
        </mxCell>
        <mxCell id="xtQtsHthPv7l7iFWxC1U-1" value="SOCIOS" style="rounded=0;whiteSpace=wrap;html=1;fillColor=#ffcccc;strokeColor=#36393d;" parent="1" vertex="1">
          <mxGeometry x="160" y="240" width="120" height="60" as="geometry" />
        </mxCell>
        <mxCell id="xtQtsHthPv7l7iFWxC1U-2" value="ID_PERSONA" style="ellipse;whiteSpace=wrap;html=1;rounded=0;fillColor=#cce5ff;strokeColor=#36393d;" parent="1" vertex="1">
          <mxGeometry x="70" y="130" width="100" height="80" as="geometry" />
        </mxCell>
        <mxCell id="xtQtsHthPv7l7iFWxC1U-4" value="NOMBRE" style="ellipse;whiteSpace=wrap;html=1;rounded=0;fillColor=#cce5ff;strokeColor=#36393d;" parent="1" vertex="1">
          <mxGeometry x="10" y="210" width="80" height="80" as="geometry" />
        </mxCell>
        <mxCell id="xtQtsHthPv7l7iFWxC1U-6" value="APELLIDO" style="ellipse;whiteSpace=wrap;html=1;rounded=0;fillColor=#cce5ff;strokeColor=#36393d;" parent="1" vertex="1">
          <mxGeometry x="60" y="290" width="80" height="80" as="geometry" />
        </mxCell>
        <mxCell id="xtQtsHthPv7l7iFWxC1U-8" value="TELEFONO" style="ellipse;whiteSpace=wrap;html=1;rounded=0;fillColor=#cce5ff;strokeColor=#36393d;" parent="1" vertex="1">
          <mxGeometry x="180" y="110" width="80" height="80" as="geometry" />
        </mxCell>
        <mxCell id="xtQtsHthPv7l7iFWxC1U-10" value="DIRECCION" style="ellipse;whiteSpace=wrap;html=1;rounded=0;fillColor=#cce5ff;strokeColor=#36393d;" parent="1" vertex="1">
          <mxGeometry x="180" y="320" width="80" height="80" as="geometry" />
        </mxCell>
        <mxCell id="xtQtsHthPv7l7iFWxC1U-16" value="" style="edgeStyle=orthogonalEdgeStyle;rounded=0;orthogonalLoop=1;jettySize=auto;html=1;endArrow=none;endFill=0;" parent="1" source="xtQtsHthPv7l7iFWxC1U-12" target="xtQtsHthPv7l7iFWxC1U-15" edge="1">
          <mxGeometry relative="1" as="geometry" />
        </mxCell>
        <mxCell id="xtQtsHthPv7l7iFWxC1U-18" value="(1,1)" style="edgeLabel;html=1;align=center;verticalAlign=middle;resizable=0;points=[];" parent="xtQtsHthPv7l7iFWxC1U-16" vertex="1" connectable="0">
          <mxGeometry x="-0.1" relative="1" as="geometry">
            <mxPoint as="offset" />
          </mxGeometry>
        </mxCell>
        <mxCell id="xtQtsHthPv7l7iFWxC1U-12" value="ASOCIAR" style="rhombus;whiteSpace=wrap;html=1;rounded=0;fillColor=#cdeb8b;strokeColor=#36393d;" parent="1" vertex="1">
          <mxGeometry x="320" y="230" width="80" height="80" as="geometry" />
        </mxCell>
        <mxCell id="xtQtsHthPv7l7iFWxC1U-30" value="" style="edgeStyle=orthogonalEdgeStyle;rounded=0;orthogonalLoop=1;jettySize=auto;html=1;endArrow=none;endFill=0;" parent="1" source="xtQtsHthPv7l7iFWxC1U-15" target="xtQtsHthPv7l7iFWxC1U-29" edge="1">
          <mxGeometry relative="1" as="geometry">
            <Array as="points">
              <mxPoint x="500" y="310" />
              <mxPoint x="500" y="310" />
            </Array>
          </mxGeometry>
        </mxCell>
        <mxCell id="xtQtsHthPv7l7iFWxC1U-33" value="(1,N)" style="edgeLabel;html=1;align=center;verticalAlign=middle;resizable=0;points=[];" parent="xtQtsHthPv7l7iFWxC1U-30" vertex="1" connectable="0">
          <mxGeometry x="-0.0286" y="1" relative="1" as="geometry">
            <mxPoint as="offset" />
          </mxGeometry>
        </mxCell>
        <mxCell id="xtQtsHthPv7l7iFWxC1U-45" value="" style="edgeStyle=orthogonalEdgeStyle;rounded=0;orthogonalLoop=1;jettySize=auto;html=1;endArrow=none;endFill=0;" parent="1" source="xtQtsHthPv7l7iFWxC1U-15" target="xtQtsHthPv7l7iFWxC1U-44" edge="1">
          <mxGeometry relative="1" as="geometry" />
        </mxCell>
        <mxCell id="xtQtsHthPv7l7iFWxC1U-46" value="(N,1)" style="edgeLabel;html=1;align=center;verticalAlign=middle;resizable=0;points=[];" parent="xtQtsHthPv7l7iFWxC1U-45" vertex="1" connectable="0">
          <mxGeometry x="0.0857" y="-2" relative="1" as="geometry">
            <mxPoint as="offset" />
          </mxGeometry>
        </mxCell>
        <mxCell id="xtQtsHthPv7l7iFWxC1U-15" value="BARCOS" style="whiteSpace=wrap;html=1;rounded=0;fillColor=#fff2cc;gradientColor=#ffd966;strokeColor=#d6b656;" parent="1" vertex="1">
          <mxGeometry x="460" y="240" width="120" height="60" as="geometry" />
        </mxCell>
        <mxCell id="xtQtsHthPv7l7iFWxC1U-19" value="ID_MATRICULA" style="ellipse;whiteSpace=wrap;html=1;rounded=0;fillColor=#cce5ff;strokeColor=#36393d;" parent="1" vertex="1">
          <mxGeometry x="580" y="110" width="110" height="80" as="geometry" />
        </mxCell>
        <mxCell id="xtQtsHthPv7l7iFWxC1U-21" value="NOMBRE" style="ellipse;whiteSpace=wrap;html=1;rounded=0;fillColor=#cce5ff;strokeColor=#36393d;" parent="1" vertex="1">
          <mxGeometry x="595" y="220" width="80" height="80" as="geometry" />
        </mxCell>
        <mxCell id="xtQtsHthPv7l7iFWxC1U-23" value="NUMERO_AMARRE" style="ellipse;whiteSpace=wrap;html=1;rounded=0;fillColor=#cce5ff;strokeColor=#36393d;" parent="1" vertex="1">
          <mxGeometry x="570" y="440" width="130" height="80" as="geometry" />
        </mxCell>
        <mxCell id="xtQtsHthPv7l7iFWxC1U-27" value="CUOTA" style="ellipse;whiteSpace=wrap;html=1;rounded=0;fillColor=#cce5ff;strokeColor=#36393d;" parent="1" vertex="1">
          <mxGeometry x="595" y="320" width="80" height="80" as="geometry" />
        </mxCell>
        <mxCell id="xtQtsHthPv7l7iFWxC1U-35" value="" style="edgeStyle=orthogonalEdgeStyle;rounded=0;orthogonalLoop=1;jettySize=auto;html=1;endArrow=none;endFill=0;" parent="1" source="xtQtsHthPv7l7iFWxC1U-29" target="xtQtsHthPv7l7iFWxC1U-34" edge="1">
          <mxGeometry relative="1" as="geometry" />
        </mxCell>
        <mxCell id="xtQtsHthPv7l7iFWxC1U-36" value="(1,1)" style="edgeLabel;html=1;align=center;verticalAlign=middle;resizable=0;points=[];" parent="xtQtsHthPv7l7iFWxC1U-35" vertex="1" connectable="0">
          <mxGeometry x="0.0333" y="-2" relative="1" as="geometry">
            <mxPoint as="offset" />
          </mxGeometry>
        </mxCell>
        <mxCell id="xtQtsHthPv7l7iFWxC1U-29" value="SALIR" style="rhombus;whiteSpace=wrap;html=1;rounded=0;fillColor=#cdeb8b;strokeColor=#36393d;" parent="1" vertex="1">
          <mxGeometry x="460" y="330" width="80" height="80" as="geometry" />
        </mxCell>
        <mxCell id="xtQtsHthPv7l7iFWxC1U-34" value="SALIDAS" style="whiteSpace=wrap;html=1;rounded=0;fillColor=#ffcccc;strokeColor=#36393d;" parent="1" vertex="1">
          <mxGeometry x="300" y="341" width="120" height="60" as="geometry" />
        </mxCell>
        <mxCell id="xtQtsHthPv7l7iFWxC1U-37" value="FECHA_SALIDA" style="ellipse;whiteSpace=wrap;html=1;rounded=0;fillColor=#cce5ff;strokeColor=#36393d;" parent="1" vertex="1">
          <mxGeometry x="190" y="420" width="100" height="80" as="geometry" />
        </mxCell>
        <mxCell id="xtQtsHthPv7l7iFWxC1U-39" value="HORA_SALIDA" style="ellipse;whiteSpace=wrap;html=1;rounded=0;fillColor=#cce5ff;strokeColor=#36393d;" parent="1" vertex="1">
          <mxGeometry x="420" y="450" width="90" height="80" as="geometry" />
        </mxCell>
        <mxCell id="xtQtsHthPv7l7iFWxC1U-42" value="DESTINO" style="ellipse;whiteSpace=wrap;html=1;rounded=0;fillColor=#cce5ff;strokeColor=#36393d;" parent="1" vertex="1">
          <mxGeometry x="310" y="480" width="80" height="80" as="geometry" />
        </mxCell>
        <mxCell id="xtQtsHthPv7l7iFWxC1U-48" value="" style="edgeStyle=orthogonalEdgeStyle;rounded=0;orthogonalLoop=1;jettySize=auto;html=1;endArrow=none;endFill=0;" parent="1" source="xtQtsHthPv7l7iFWxC1U-44" target="xtQtsHthPv7l7iFWxC1U-47" edge="1">
          <mxGeometry relative="1" as="geometry" />
        </mxCell>
        <mxCell id="xtQtsHthPv7l7iFWxC1U-49" value="(1,N)" style="edgeLabel;html=1;align=center;verticalAlign=middle;resizable=0;points=[];" parent="xtQtsHthPv7l7iFWxC1U-48" vertex="1" connectable="0">
          <mxGeometry x="-0.0889" relative="1" as="geometry">
            <mxPoint as="offset" />
          </mxGeometry>
        </mxCell>
        <mxCell id="xtQtsHthPv7l7iFWxC1U-44" value="TENER" style="rhombus;whiteSpace=wrap;html=1;rounded=0;fillColor=#cdeb8b;strokeColor=#36393d;" parent="1" vertex="1">
          <mxGeometry x="425" y="110" width="80" height="80" as="geometry" />
        </mxCell>
        <mxCell id="xtQtsHthPv7l7iFWxC1U-47" value="PATRON" style="whiteSpace=wrap;html=1;rounded=0;fillColor=#ffcccc;strokeColor=#36393d;" parent="1" vertex="1">
          <mxGeometry x="405" y="10" width="120" height="60" as="geometry" />
        </mxCell>
        <mxCell id="xtQtsHthPv7l7iFWxC1U-50" value="ID_DUEÃO" style="ellipse;whiteSpace=wrap;html=1;rounded=0;fillColor=#cce5ff;strokeColor=#36393d;" parent="1" vertex="1">
          <mxGeometry x="374" y="-130" width="80" height="80" as="geometry" />
        </mxCell>
        <mxCell id="xtQtsHthPv7l7iFWxC1U-52" value="TELEFONO" style="ellipse;whiteSpace=wrap;html=1;rounded=0;fillColor=#cce5ff;strokeColor=#36393d;" parent="1" vertex="1">
          <mxGeometry x="560" y="-30" width="80" height="80" as="geometry" />
        </mxCell>
        <mxCell id="xtQtsHthPv7l7iFWxC1U-54" value="NOMBRE" style="ellipse;whiteSpace=wrap;html=1;rounded=0;fillColor=#cce5ff;strokeColor=#36393d;" parent="1" vertex="1">
          <mxGeometry x="290" y="-30" width="80" height="80" as="geometry" />
        </mxCell>
        <mxCell id="xtQtsHthPv7l7iFWxC1U-56" value="APELLIDO" style="ellipse;whiteSpace=wrap;html=1;rounded=0;fillColor=#cce5ff;strokeColor=#36393d;" parent="1" vertex="1">
          <mxGeometry x="480" y="-130" width="80" height="80" as="geometry" />
        </mxCell>
        <mxCell id="bUgrWWndJrkHeBv5nCgw-1" value="" style="endArrow=none;html=1;rounded=0;entryX=0;entryY=1;entryDx=0;entryDy=0;exitX=0.75;exitY=0;exitDx=0;exitDy=0;" edge="1" parent="1" source="xtQtsHthPv7l7iFWxC1U-15" target="xtQtsHthPv7l7iFWxC1U-19">
          <mxGeometry width="50" height="50" relative="1" as="geometry">
            <mxPoint x="460" y="310" as="sourcePoint" />
            <mxPoint x="510" y="260" as="targetPoint" />
            <Array as="points" />
          </mxGeometry>
        </mxCell>
        <mxCell id="bUgrWWndJrkHeBv5nCgw-2" value="" style="endArrow=none;html=1;rounded=0;exitX=1;exitY=0.5;exitDx=0;exitDy=0;" edge="1" parent="1" source="xtQtsHthPv7l7iFWxC1U-15" target="xtQtsHthPv7l7iFWxC1U-21">
          <mxGeometry width="50" height="50" relative="1" as="geometry">
            <mxPoint x="460" y="310" as="sourcePoint" />
            <mxPoint x="510" y="260" as="targetPoint" />
          </mxGeometry>
        </mxCell>
        <mxCell id="bUgrWWndJrkHeBv5nCgw-3" value="" style="endArrow=none;html=1;rounded=0;exitX=0.75;exitY=1;exitDx=0;exitDy=0;" edge="1" parent="1" source="xtQtsHthPv7l7iFWxC1U-15" target="xtQtsHthPv7l7iFWxC1U-27">
          <mxGeometry width="50" height="50" relative="1" as="geometry">
            <mxPoint x="460" y="310" as="sourcePoint" />
            <mxPoint x="510" y="260" as="targetPoint" />
          </mxGeometry>
        </mxCell>
        <mxCell id="bUgrWWndJrkHeBv5nCgw-4" value="" style="endArrow=none;html=1;rounded=0;entryX=0.315;entryY=0.038;entryDx=0;entryDy=0;exitX=0.592;exitY=1.017;exitDx=0;exitDy=0;exitPerimeter=0;entryPerimeter=0;" edge="1" parent="1" source="xtQtsHthPv7l7iFWxC1U-15" target="xtQtsHthPv7l7iFWxC1U-23">
          <mxGeometry width="50" height="50" relative="1" as="geometry">
            <mxPoint x="460" y="310" as="sourcePoint" />
            <mxPoint x="510" y="260" as="targetPoint" />
          </mxGeometry>
        </mxCell>
        <mxCell id="bUgrWWndJrkHeBv5nCgw-5" value="" style="endArrow=none;html=1;rounded=0;entryX=0;entryY=1;entryDx=0;entryDy=0;exitX=1;exitY=0;exitDx=0;exitDy=0;" edge="1" parent="1" source="xtQtsHthPv7l7iFWxC1U-37" target="xtQtsHthPv7l7iFWxC1U-34">
          <mxGeometry width="50" height="50" relative="1" as="geometry">
            <mxPoint x="290" y="420" as="sourcePoint" />
            <mxPoint x="510" y="460" as="targetPoint" />
          </mxGeometry>
        </mxCell>
        <mxCell id="bUgrWWndJrkHeBv5nCgw-8" value="" style="endArrow=none;html=1;rounded=0;entryX=0.45;entryY=1.033;entryDx=0;entryDy=0;entryPerimeter=0;" edge="1" parent="1" source="xtQtsHthPv7l7iFWxC1U-42" target="xtQtsHthPv7l7iFWxC1U-34">
          <mxGeometry width="50" height="50" relative="1" as="geometry">
            <mxPoint x="460" y="510" as="sourcePoint" />
            <mxPoint x="510" y="460" as="targetPoint" />
            <Array as="points" />
          </mxGeometry>
        </mxCell>
        <mxCell id="bUgrWWndJrkHeBv5nCgw-9" value="" style="endArrow=none;html=1;rounded=0;entryX=0.75;entryY=1;entryDx=0;entryDy=0;exitX=0.078;exitY=0.263;exitDx=0;exitDy=0;exitPerimeter=0;" edge="1" parent="1" source="xtQtsHthPv7l7iFWxC1U-39" target="xtQtsHthPv7l7iFWxC1U-34">
          <mxGeometry width="50" height="50" relative="1" as="geometry">
            <mxPoint x="460" y="510" as="sourcePoint" />
            <mxPoint x="510" y="460" as="targetPoint" />
          </mxGeometry>
        </mxCell>
        <mxCell id="bUgrWWndJrkHeBv5nCgw-10" value="" style="endArrow=none;html=1;rounded=0;exitX=1;exitY=0;exitDx=0;exitDy=0;entryX=0;entryY=0.5;entryDx=0;entryDy=0;" edge="1" parent="1" source="xtQtsHthPv7l7iFWxC1U-6" target="xtQtsHthPv7l7iFWxC1U-1">
          <mxGeometry width="50" height="50" relative="1" as="geometry">
            <mxPoint x="100" y="330" as="sourcePoint" />
            <mxPoint x="170" y="270" as="targetPoint" />
          </mxGeometry>
        </mxCell>
        <mxCell id="bUgrWWndJrkHeBv5nCgw-11" value="" style="endArrow=none;html=1;rounded=0;entryX=0;entryY=0.25;entryDx=0;entryDy=0;" edge="1" parent="1" target="xtQtsHthPv7l7iFWxC1U-1">
          <mxGeometry width="50" height="50" relative="1" as="geometry">
            <mxPoint x="90" y="257" as="sourcePoint" />
            <mxPoint x="150" y="280" as="targetPoint" />
          </mxGeometry>
        </mxCell>
        <mxCell id="bUgrWWndJrkHeBv5nCgw-12" value="" style="endArrow=none;html=1;rounded=0;entryX=0.183;entryY=0.017;entryDx=0;entryDy=0;entryPerimeter=0;exitX=0.77;exitY=0.925;exitDx=0;exitDy=0;exitPerimeter=0;" edge="1" parent="1" source="xtQtsHthPv7l7iFWxC1U-2" target="xtQtsHthPv7l7iFWxC1U-1">
          <mxGeometry width="50" height="50" relative="1" as="geometry">
            <mxPoint x="140" y="200" as="sourcePoint" />
            <mxPoint x="150" y="280" as="targetPoint" />
          </mxGeometry>
        </mxCell>
        <mxCell id="bUgrWWndJrkHeBv5nCgw-15" value="" style="endArrow=none;html=1;rounded=0;exitX=0.308;exitY=0;exitDx=0;exitDy=0;exitPerimeter=0;" edge="1" parent="1" source="xtQtsHthPv7l7iFWxC1U-47">
          <mxGeometry width="50" height="50" relative="1" as="geometry">
            <mxPoint x="540" y="10" as="sourcePoint" />
            <mxPoint x="423" y="-50" as="targetPoint" />
          </mxGeometry>
        </mxCell>
        <mxCell id="bUgrWWndJrkHeBv5nCgw-16" value="" style="endArrow=none;html=1;rounded=0;entryX=0.5;entryY=1;entryDx=0;entryDy=0;" edge="1" parent="1" target="xtQtsHthPv7l7iFWxC1U-56">
          <mxGeometry width="50" height="50" relative="1" as="geometry">
            <mxPoint x="490" y="10" as="sourcePoint" />
            <mxPoint x="520" y="-60" as="targetPoint" />
          </mxGeometry>
        </mxCell>
        <mxCell id="bUgrWWndJrkHeBv5nCgw-17" value="" style="endArrow=none;html=1;rounded=0;entryX=0;entryY=0.663;entryDx=0;entryDy=0;entryPerimeter=0;exitX=1;exitY=0.5;exitDx=0;exitDy=0;" edge="1" parent="1" source="xtQtsHthPv7l7iFWxC1U-47" target="xtQtsHthPv7l7iFWxC1U-52">
          <mxGeometry width="50" height="50" relative="1" as="geometry">
            <mxPoint x="530" y="33" as="sourcePoint" />
            <mxPoint x="590" y="-40" as="targetPoint" />
          </mxGeometry>
        </mxCell>
        <mxCell id="bUgrWWndJrkHeBv5nCgw-18" value="" style="endArrow=none;html=1;rounded=0;entryX=0;entryY=0.5;entryDx=0;entryDy=0;exitX=0.988;exitY=0.75;exitDx=0;exitDy=0;exitPerimeter=0;" edge="1" parent="1" source="xtQtsHthPv7l7iFWxC1U-54" target="xtQtsHthPv7l7iFWxC1U-47">
          <mxGeometry width="50" height="50" relative="1" as="geometry">
            <mxPoint x="540" y="10" as="sourcePoint" />
            <mxPoint x="590" y="-40" as="targetPoint" />
          </mxGeometry>
        </mxCell>
      </root>
    </mxGraphModel>
  </diagram>
</mxfile>
